<?xml version="1.0"?>
<svg width="410" height="400" xmlns="http://www.w3.org/2000/svg" xmlns:svg="http://www.w3.org/2000/svg">

 <g class="layer" >
  <title>Layer 1</title>
  <g id="svg_1">
   <path clip-rule="evenodd" d="m217.349994,12.100012c0,0.4 0,0.9 -0.2,1.4c-1.4,0 -1.9,1.1 -1.9,4.6l0,16.1c-0.4,0.1 -0.9,0.2 -1.3,0.2l-13.5,-17.6l0,11.2c0,3.7 0.5,4.8 2.2,4.8c0.1,0.4 0.2,0.8 0.2,1.4c-1,-0.1 -2.3,-0.1 -3.2,-0.1c-0.9,0 -2.4,0 -3.2,0.1c0,-0.6 0,-1 0.2,-1.4c1.8,0 2.2,-1.1 2.2,-4.8l0,-13.4l-0.1,-0.2c-0.6,-0.8 -1,-0.9 -2.1,-1c-0.1,-0.4 -0.2,-1 -0.2,-1.4c0.6,0.1 1.6,0.1 2.4,0.1c0.8,0 1.6,0 2.2,-0.1l12.6,16.7l0,-10.7c0,-3.5 -0.5,-4.6 -2.2,-4.6c-0.1,-0.7 -0.2,-1 -0.2,-1.4c0.9,0.1 2.1,0.1 3,0.1c0.9,0.1 2.2,0.1 3.1,0" fill="#bae7ff" fill-rule="evenodd" id="svg_253"/>
   <path clip-rule="evenodd" d="m212.249994,357.000012c0,1.3 0,3.1 0.2,4.3c-0.5,0.2 -1.2,0.3 -1.8,0.3c-0.6,-3.7 -1.9,-4.6 -3.8,-4.6c-2.3,0 -3.7,1.2 -3.7,3.2c0,5.7 10.8,4.5 10.8,11.6c0,3.2 -2.2,6.2 -7.4,6.2c-2.7,0 -4.5,-0.8 -6.6,-2.1c0.3,-1.6 0.3,-3.4 0.3,-4.6c0.5,-0.1 1.2,-0.2 1.7,-0.2c0.2,3.3 1.5,5.3 5,5.3c3,0 4.1,-1.5 4.1,-3.4c0,-5.7 -10.8,-4.2 -10.8,-11.7c0,-3.6 2.5,-5.8 6.5,-5.8c2.3,0.1 4.3,0.8 5.5,1.5" fill="#bae7ff" fill-rule="evenodd" id="svg_252"/>
   <path clip-rule="evenodd" d="m47.549994,184.000012c0,0.4 -0.1,0.9 -0.2,1.4c-1.1,0.3 -1.7,1.1 -2.7,4.7l-4.7,16c-0.4,0.1 -0.8,0.2 -1.3,0.2c-1.9,-5.4 -4.4,-11.7 -6.5,-17.1l-5.5,16.9c-0.4,0.1 -0.9,0.2 -1.4,0.2c-1.8,-5.7 -3.8,-11.5 -5.8,-17.2c-1.2,-3.5 -1.4,-3.6 -2.6,-3.7c-0.1,-0.4 -0.2,-0.9 -0.2,-1.4c1,0.1 2.7,0.1 3.7,0.1c1,0 2.7,0 3.9,-0.1c0,0.4 0,0.9 -0.2,1.4c-2.3,0.1 -2.5,0.5 -1.5,3.3c1.3,3.6 2.8,8.2 4.1,12l5.5,-16.8c0.3,-0.1 0.7,-0.2 1.4,-0.2c2.1,5.2 4.4,11.5 6.4,16.9l3.1,-10.8c1,-3.3 0.5,-4.3 -1.6,-4.6c-0.2,-0.4 -0.2,-1 -0.2,-1.4c0.9,0.1 2,0.1 3.1,0.1c1.2,0.2 2.4,0.2 3.2,0.1" fill="#bae7ff" fill-rule="evenodd" id="svg_251"/>
   <path clip-rule="evenodd" d="m389.349994,201.300012c-0.5,1.5 -0.8,3.3 -1,4.8c-1.3,0 -3.9,-0.1 -6.9,-0.1c-2.4,0 -6.8,0 -8.4,0.1c0,-0.6 0,-1 0.2,-1.4c1.7,-0.1 2.2,-0.7 2.2,-3.2l0,-13.3c0,-2.2 -0.5,-2.7 -2.2,-2.8c-0.1,-0.4 -0.2,-0.9 -0.2,-1.4c1.3,0.1 4.3,0.1 5.4,0.1c5.1,0 8,-0.1 9.1,-0.1c0.1,1.5 0.4,3.7 0.7,5.1c-0.4,0.3 -0.9,0.4 -1.5,0.4c-0.2,-2 -1.1,-4.1 -5.3,-4.1l-3,0l0,8.9l2,0c2.7,0 3.6,-0.5 3.6,-2.6c0.6,-0.2 1,-0.2 1.6,-0.2c-0.1,1.1 -0.1,2.4 -0.1,3.5c0,1.1 0,2.7 0.1,3.8c-0.6,0 -1,0 -1.5,-0.2c-0.2,-2.2 -1,-2.9 -3.7,-2.9l-2,0l0,5.9c0,2.4 0.5,3 2.9,3l0.2,0c4.6,0 5.4,-1.4 6.3,-4.1c0.8,0.2 1.1,0.4 1.5,0.8" fill="#bae7ff" fill-rule="evenodd" id="svg_250"/>
   <path clip-rule="evenodd" d="m360.649994,199.700012l0,-0.8c0,-1.3 0.1,-2.5 0.1,-3.8c0,-1.3 0,-2.5 -0.1,-3.8l0,-0.8l12.3,0l0,1.2c0,1.1 0.1,2.3 0.1,3.4c0,1.2 0,2.3 -0.1,3.4l0,1.2l-12.3,0z" fill="#FFFFFF" fill-rule="evenodd" id="svg_249"/>
   <path clip-rule="evenodd" d="m133.649994,125.500012c1.3,-1.4 2.7,-2.7 4,-4l5.3,5.3c-1.3,1.3 -2.7,2.6 -4,4l-5.3,-5.3z" fill="#bae7ff" fill-rule="evenodd" id="svg_248"/>
   <polygon clip-rule="evenodd" fill="#bae7ff" fill-rule="evenodd" id="svg_247" points="278.8499755859375,123.5 280.54998779296875,125.30001831054688 284.949951171875,119.20001220703125 289.25,113.10000610351562 283.1500244140625,117.4000244140625 277.04998779296875,121.70001220703125 "/>
   <polygon clip-rule="evenodd" fill="#bae7ff" fill-rule="evenodd" id="svg_246" points="266.8499755859375,113.4000244140625 268.8499755859375,114.80001831054688 272.1500244140625,108.10000610351562 275.449951171875,101.4000244140625 270.1500244140625,106.70001220703125 264.8499755859375,111.9000244140625 "/>
   <polygon clip-rule="evenodd" fill="#bae7ff" fill-rule="evenodd" id="svg_245" points="307.3499755859375,178.60000610351562 307.75,181 314.8499755859375,178.60000610351562 321.8499755859375,176.20001220703125 314.3499755859375,176.20001220703125 306.949951171875,176.10000610351562 "/>
   <polygon clip-rule="evenodd" fill="#bae7ff" fill-rule="evenodd" id="svg_244" points="290.1500244140625,253.4000244140625 288.75,255.5 295.449951171875,258.800048828125 302.1500244140625,262 296.8499755859375,256.70001220703125 291.6500244140625,251.4000244140625 "/>
   <polygon clip-rule="evenodd" fill="#bae7ff" fill-rule="evenodd" id="svg_243" points="253.04998779296875,105 255.25,106.10000610351562 257.4499816894531,99 259.6499938964844,91.80001831054688 255.25,97.9000244140625 250.75,103.9000244140625 "/>
   <polygon clip-rule="evenodd" fill="#bae7ff" fill-rule="evenodd" id="svg_242" points="298.449951171875,239.5 297.3499755859375,241.800048828125 304.449951171875,244 311.54998779296875,246.0999755859375 305.54998779296875,241.70001220703125 299.54998779296875,237.300048828125 "/>
   <polygon clip-rule="evenodd" fill="#bae7ff" fill-rule="evenodd" id="svg_241" points="238.44998168945312,99.10000610351562 240.85000610351562,99.80001831054688 241.94998168945312,92.4000244140625 242.94998168945312,85.10000610351562 239.54998779296875,91.70001220703125 236.14999389648438,98.30001831054688 "/>
   <polygon clip-rule="evenodd" fill="#bae7ff" fill-rule="evenodd" id="svg_240" points="297.25,148.5 298.3499755859375,150.70001220703125 304.3499755859375,146.20001220703125 310.3499755859375,141.70001220703125 303.25,144 296.1500244140625,146.30001831054688 "/>
   <polygon clip-rule="evenodd" fill="#bae7ff" fill-rule="evenodd" id="svg_239" points="223.14999389648438,95.5 225.54998779296875,95.80001831054688 225.44998168945312,88.4000244140625 225.35000610351562,80.9000244140625 222.94998168945312,88 220.64999389648438,95.10000610351562 "/>
   <polygon clip-rule="evenodd" fill="#bae7ff" fill-rule="evenodd" id="svg_238" points="288.8499755859375,135.10000610351562 290.3499755859375,137.10000610351562 295.54998779296875,131.70001220703125 300.75,126.4000244140625 294.04998779296875,129.70001220703125 287.3499755859375,133.10000610351562 "/>
   <polygon clip-rule="evenodd" fill="#bae7ff" fill-rule="evenodd" id="svg_237" points="307.6500244140625,209.5 307.25,212 314.75,211.9000244140625 322.25,211.80001831054688 315.1500244140625,209.4000244140625 308.04998779296875,207.10000610351562 "/>
   <polygon clip-rule="evenodd" fill="#bae7ff" fill-rule="evenodd" id="svg_236" points="224.04998779296875,294.800048828125 226.54998779296875,294.4000244140625 226.54998779296875,301.800048828125 226.44998168945312,309.300048828125 224.04998779296875,302.20001220703125 221.64999389648438,295.20001220703125 "/>
   <polygon clip-rule="evenodd" fill="#bae7ff" fill-rule="evenodd" id="svg_235" points="238.94998168945312,291.0999755859375 241.35000610351562,290.4000244140625 242.35000610351562,297.800048828125 243.44998168945312,305.0999755859375 240.04998779296875,298.5 236.54998779296875,291.9000244140625 "/>
   <polygon clip-rule="evenodd" fill="#bae7ff" fill-rule="evenodd" id="svg_234" points="253.75,284.9000244140625 255.94998168945312,283.800048828125 258.25,290.9000244140625 260.4499816894531,298.0999755859375 256.04998779296875,292.0999755859375 251.54998779296875,286.0999755859375 "/>
   <polygon clip-rule="evenodd" fill="#bae7ff" fill-rule="evenodd" id="svg_233" points="267.3499755859375,276.5 269.3499755859375,275.0999755859375 272.6500244140625,281.70001220703125 276.04998779296875,288.4000244140625 270.6500244140625,283.20001220703125 265.3499755859375,278 "/>
   <polygon clip-rule="evenodd" fill="#bae7ff" fill-rule="evenodd" id="svg_232" points="279.25,266.20001220703125 281.04998779296875,264.4000244140625 285.3499755859375,270.5 289.75,276.5999755859375 283.6500244140625,272.300048828125 277.54998779296875,268 "/>
   <polygon clip-rule="evenodd" fill="#bae7ff" fill-rule="evenodd" id="svg_231" points="135.64999389648438,123.5 133.95001220703125,125.30001831054688 129.54998779296875,119.20001220703125 125.25,113.10000610351562 131.3499755859375,117.4000244140625 137.45001220703125,121.70001220703125 "/>
   <polygon clip-rule="evenodd" fill="#bae7ff" fill-rule="evenodd" id="svg_230" points="147.64999389648438,113.4000244140625 145.64999389648438,114.80001831054688 142.3499755859375,108.10000610351562 139.04998779296875,101.4000244140625 144.3499755859375,106.70001220703125 149.64999389648438,111.9000244140625 "/>
   <polygon clip-rule="evenodd" fill="#bae7ff" fill-rule="evenodd" id="svg_229" points="107.14999389648438,178.60000610351562 106.75,181 99.64999389648438,178.60000610351562 92.64999389648438,176.20001220703125 100.04998779296875,176.20001220703125 107.54998779296875,176.10000610351562 "/>
   <polygon clip-rule="evenodd" fill="#bae7ff" fill-rule="evenodd" id="svg_228" points="124.3499755859375,253.4000244140625 125.75,255.5 119.04998779296875,258.800048828125 112.3499755859375,262 117.64999389648438,256.70001220703125 122.8499755859375,251.4000244140625 "/>
   <polygon clip-rule="evenodd" fill="#bae7ff" fill-rule="evenodd" id="svg_227" points="161.45001220703125,105 159.25,106.10000610351562 157.04998779296875,99 154.8499755859375,91.80001831054688 159.25,97.9000244140625 163.64999389648438,103.9000244140625 "/>
   <polygon clip-rule="evenodd" fill="#bae7ff" fill-rule="evenodd" id="svg_226" points="116.04998779296875,239.5 117.14999389648438,241.800048828125 110.04998779296875,244 102.95001220703125,246.0999755859375 108.95001220703125,241.70001220703125 114.95001220703125,237.300048828125 "/>
   <polygon clip-rule="evenodd" fill="#bae7ff" fill-rule="evenodd" id="svg_225" points="176.04998779296875,99.10000610351562 173.64999389648438,99.80001831054688 172.54998779296875,92.4000244140625 171.54998779296875,85.10000610351562 174.95001220703125,91.70001220703125 178.35000610351562,98.30001831054688 "/>
   <polygon clip-rule="evenodd" fill="#bae7ff" fill-rule="evenodd" id="svg_224" points="117.25,148.5 116.04998779296875,150.70001220703125 110.14999389648438,146.20001220703125 104.14999389648438,141.70001220703125 111.25,144 118.3499755859375,146.30001831054688 "/>
   <polygon clip-rule="evenodd" fill="#bae7ff" fill-rule="evenodd" id="svg_223" points="191.35000610351562,95.5 188.94998168945312,95.80001831054688 189.04998779296875,88.4000244140625 189.14999389648438,80.9000244140625 191.54998779296875,88 193.85000610351562,95.10000610351562 "/>
   <polygon clip-rule="evenodd" fill="#bae7ff" fill-rule="evenodd" id="svg_222" points="125.64999389648438,135.10000610351562 124.14999389648438,137.10000610351562 118.95001220703125,131.70001220703125 113.75,126.4000244140625 120.45001220703125,129.70001220703125 127.14999389648438,133.10000610351562 "/>
   <polygon clip-rule="evenodd" fill="#bae7ff" fill-rule="evenodd" id="svg_221" points="106.8499755859375,209.5 107.14999389648438,212 99.75,211.9000244140625 92.25,211.80001831054688 99.3499755859375,209.4000244140625 106.45001220703125,207.10000610351562 "/>
   <polygon clip-rule="evenodd" fill="#bae7ff" fill-rule="evenodd" id="svg_220" points="190.35000610351562,294.800048828125 187.94998168945312,294.4000244140625 187.94998168945312,301.800048828125 188.04998779296875,309.300048828125 190.44998168945312,302.20001220703125 192.85000610351562,295.20001220703125 "/>
   <polygon clip-rule="evenodd" fill="#bae7ff" fill-rule="evenodd" id="svg_219" points="175.54998779296875,291.0999755859375 173.14999389648438,290.4000244140625 172.14999389648438,297.800048828125 171.04998779296875,305.0999755859375 174.45001220703125,298.5 177.94998168945312,291.9000244140625 "/>
   <polygon clip-rule="evenodd" fill="#bae7ff" fill-rule="evenodd" id="svg_218" points="160.75,284.9000244140625 158.54998779296875,283.800048828125 156.25,290.9000244140625 154.04998779296875,298.0999755859375 158.45001220703125,292.0999755859375 162.95001220703125,286.0999755859375 "/>
   <polygon clip-rule="evenodd" fill="#bae7ff" fill-rule="evenodd" id="svg_217" points="147.14999389648438,276.5 145.14999389648438,275.0999755859375 141.75,281.70001220703125 138.45001220703125,288.4000244140625 143.8499755859375,283.20001220703125 149.14999389648438,278 "/>
   <polygon clip-rule="evenodd" fill="#bae7ff" fill-rule="evenodd" id="svg_216" points="135.14999389648438,266.20001220703125 133.45001220703125,264.4000244140625 129.14999389648438,270.5 124.75,276.5999755859375 130.8499755859375,272.300048828125 136.95001220703125,268 "/>
   <polygon clip-rule="evenodd" fill="#bae7ff" fill-rule="evenodd" id="svg_215" points="303.3499755859375,162.9000244140625 304.04998779296875,165.30001831054688 310.75,162 317.449951171875,158.60000610351562 310.04998779296875,159.60000610351562 302.6500244140625,160.5 "/>
   <polygon clip-rule="evenodd" fill="#bae7ff" fill-rule="evenodd" id="svg_214" points="304.25,225 303.54998779296875,227.4000244140625 310.949951171875,228.300048828125 318.3499755859375,229.300048828125 311.6500244140625,225.9000244140625 304.949951171875,222.5999755859375 "/>
   <polygon clip-rule="evenodd" fill="#bae7ff" fill-rule="evenodd" id="svg_213" points="111.14999389648438,162.9000244140625 110.45001220703125,165.30001831054688 103.75,162 97.04998779296875,158.60000610351562 104.45001220703125,159.60000610351562 111.8499755859375,160.5 "/>
   <polygon clip-rule="evenodd" fill="#bae7ff" fill-rule="evenodd" id="svg_212" points="110.25,225 110.95001220703125,227.4000244140625 103.54998779296875,228.300048828125 96.14999389648438,229.300048828125 102.8499755859375,225.9000244140625 109.54998779296875,222.5999755859375 "/>
   <path clip-rule="evenodd" d="m167.949994,105.700012c1.7,-0.6 3.5,-1.3 5.3,-2l2.6,6.9c-1.7,0.4 -3.4,1.1 -5.1,1.9l-2.8,-6.8z" fill="#FFFFFF" fill-rule="evenodd" id="svg_211"/>
   <path clip-rule="evenodd" d="m278.549994,128.000012c-1.4,-1.5 -2.8,-2.9 -4.3,-4.3l5.8,-5.5c1.3,1.4 2.8,2.9 4.2,4.5l-5.7,5.3z" fill="#FFFFFF" fill-rule="evenodd" id="svg_210"/>
   <path clip-rule="evenodd" d="m279.849994,118.500012c1.3,1.2 2.6,2.5 3.9,3.9l-5.3,5.3c-1.3,-1.4 -2.6,-2.7 -3.9,-3.9l5.3,-5.3zm0,-0.5l-5.8,5.8c1.5,1.4 3,2.9 4.5,4.5l5.8,-5.8c-1.4,-1.6 -2.9,-3.1 -4.5,-4.5z" fill="#6E3B0A" fill-rule="evenodd" id="svg_209"/>
   <path clip-rule="evenodd" d="m130.249994,122.300012c1.4,-1.3 2.9,-2.8 4.5,-4.2l5.5,5.8c-1.5,1.1 -2.9,2.6 -4.3,4.1l-5.7,-5.7z" fill="#FFFFFF" fill-rule="evenodd" id="svg_208"/>
   <path clip-rule="evenodd" d="m134.549994,118.500012l5.3,5.3c-1.3,1.3 -2.7,2.6 -3.9,3.9l-5.3,-5.3c1.3,-1.3 2.6,-2.6 3.9,-3.9m0,-0.5c-1.5,1.4 -3,2.9 -4.5,4.5l5.8,5.8c1.4,-1.5 2.9,-3 4.5,-4.5l-5.8,-5.8z" fill="#6E3B0A" fill-rule="evenodd" id="svg_207"/>
   <path clip-rule="evenodd" d="m274.249994,266.300012c1.5,-1.2 3,-2.7 4.5,-4.2l5.5,5.8c-1.4,1.2 -2.8,2.7 -4.3,4.1l-5.7,-5.7z" fill="#FFFFFF" fill-rule="evenodd" id="svg_206"/>
   <path clip-rule="evenodd" d="m278.549994,262.500012l5.3,5.3c-1.3,1.4 -2.6,2.7 -3.9,3.9l-5.3,-5.3c1.3,-1.3 2.6,-2.6 3.9,-3.9m0,-0.6c-1.4,1.5 -2.9,3 -4.5,4.5l5.8,5.8c1.5,-1.4 3,-2.9 4.5,-4.5l-5.8,-5.8z" fill="#6E3B0A" fill-rule="evenodd" id="svg_205"/>
   <path clip-rule="evenodd" d="m304.949994,198.100012l0.2,-0.4c0,-0.8 0.1,-1.7 0.1,-2.5c0,-0.8 0,-1.7 -0.1,-2.5l0,-0.6l8,0.2l-0.2,0.8c0,0.7 0,1.4 0,2.2c0,0.7 0,1.5 0,2.2l0,0.8l-8,0l0,-0.2z" fill="#FFFFFF" fill-rule="evenodd" id="svg_204"/>
   <path clip-rule="evenodd" d="m312.849994,192.300012l0,0.6c0,0.7 0,1.4 0,2.2c0,0.7 0,1.5 0,2.2l0,0.6l-7.5,0l0,-0.2c0,-0.8 0.1,-1.7 0.1,-2.5c0,-0.8 0,-1.7 -0.1,-2.5l0,-0.2l7.5,0l0,-0.2zm0.3,-0.4l-8.2,0c0,1.1 0.1,2.1 0.1,3.2c0,1.1 0,2.1 -0.1,3.2l8.2,0c0,-1.1 0.1,-2.1 0.1,-3.2c0,-1.1 0,-2.1 -0.1,-3.2z" fill="#6E3B0A" fill-rule="evenodd" id="svg_203"/>
   <path clip-rule="evenodd" d="m101.249994,198.100012l0.2,-0.9c0,-0.7 0,-1.4 0,-2.1c0,-0.7 0,-1.4 0,-2.1l0,-1.1l8,0.2l-0.2,0.6c0,0.8 -0.1,1.6 -0.1,2.3c0,0.8 0,1.6 0.1,2.4l0,0.6l-8,0l0,0.1z" fill="#FFFFFF" fill-rule="evenodd" id="svg_202"/>
   <path clip-rule="evenodd" d="m109.149994,192.300012l0,0.4c0,0.8 -0.1,1.6 -0.1,2.4c0,0.8 0,1.6 0.1,2.4l0,0.4l-7.5,0l0,-0.7c0,-0.7 0,-1.4 0,-2.1c0,-0.7 0,-1.4 0,-2.1l0,-0.7l7.5,0zm0.4,-0.4l-8.2,0c0,1.1 -0.1,2.1 -0.1,3.2c0,1.1 0.1,2.1 0.1,3.2l8.2,0c0,-1.1 -0.1,-2.1 -0.1,-3.2c0,-1.1 0,-2.1 0.1,-3.2z" fill="#6E3B0A" fill-rule="evenodd" id="svg_201"/>
   <path clip-rule="evenodd" d="m134.549994,272.000012c-1.5,-1.4 -2.9,-2.8 -4.3,-4.3l5.8,-5.6c1.2,1.5 2.7,3 4.2,4.5l-5.7,5.4z" fill="#FFFFFF" fill-rule="evenodd" id="svg_200"/>
   <path clip-rule="evenodd" d="m135.949994,262.500012c1.3,1.4 2.6,2.7 3.9,3.9l-5.3,5.3c-1.3,-1.3 -2.6,-2.6 -3.9,-3.9l5.3,-5.3zm0,-0.6l-5.8,5.8c1.4,1.5 2.9,3 4.5,4.5l5.8,-5.8c-1.6,-1.4 -3.1,-2.9 -4.5,-4.5z" fill="#6E3B0A" fill-rule="evenodd" id="svg_199"/>
   <path clip-rule="evenodd" d="m209.349994,300.900012c-0.7,0 -1.4,0.1 -2.2,0.1c-0.7,0 -1.4,0 -2.2,-0.1l-1,0l0.2,-8l0.4,0.2c0.9,0 1.7,0.1 2.6,0.1c0.9,0 1.7,0 2.6,-0.1l0.6,0l-0.2,8l-0.8,-0.2z" fill="#FFFFFF" fill-rule="evenodd" id="svg_198"/>
   <path clip-rule="evenodd" d="m204.449994,293.200012l0.2,0c0.9,0 1.7,0.1 2.6,0.1c0.9,0 1.7,0 2.6,-0.1l0.2,0l0,7.5l-0.6,0c-0.7,0 -1.4,0 -2.1,0c-0.7,0 -1.4,0 -2.1,0l-0.6,0l0,-7.5l-0.2,0zm6,-0.4c-1,0 -2.1,0.1 -3.2,0.1c-1.1,0 -2.1,0 -3.2,-0.1l0,8.2c1.1,0 2.1,0.1 3.2,0.1c1.1,0 2.1,-0.1 3.2,-0.1l0,-8.2z" fill="#6E3B0A" fill-rule="evenodd" id="svg_197"/>
   <path clip-rule="evenodd" d="m204.249994,89.200012l0.8,0.2c0.7,0 1.4,0 2.2,0c0.7,0 1.4,0 2.2,0l1,0l-0.2,7.8l-0.8,0c-0.7,0 -1.4,-0.1 -2.2,-0.1c-0.7,0 -1.4,0 -2.2,0.1l-1,0l0.2,-8z" fill="#FFFFFF" fill-rule="evenodd" id="svg_196"/>
   <path clip-rule="evenodd" d="m207.249994,89.400012c0.7,0 1.4,0 2.1,0l0.6,0l0,7.5l-0.6,0c-0.7,0 -1.4,-0.1 -2.2,-0.1c-0.7,0 -1.5,0 -2.2,0.1l-0.6,0l0,-7.5l0.6,0c0.9,0.1 1.6,0.1 2.3,0m0,-0.3c-1.1,0 -2.1,0.1 -3.2,0.1l0,8.2c1.1,0 2.1,-0.1 3.2,-0.1c1.1,0 2.1,0.1 3.2,0.1l0,-8.2c-1.1,-0.1 -2.1,-0.1 -3.2,-0.1z" fill="#6E3B0A" fill-rule="evenodd" id="svg_195"/>
   <polygon clip-rule="evenodd" fill="#FFFFFF" fill-rule="evenodd" id="svg_194" points="207.75,155.30001831054688 295.1500244140625,105.70001220703125 208.25,192.60000610351562 "/>
   <path clip-rule="evenodd" d="m288.849994,110.500012l-79.6,79.6l-0.5,-34.1l80.1,-45.5zm12.5,-9.5l-94.7,53.7l0.5,40.3l94.2,-94z" fill="#bae7ff" fill-rule="evenodd" id="svg_193"/>
   <polygon clip-rule="evenodd" fill="#bae7ff" fill-rule="evenodd" id="svg_192" points="301.3499755859375,101 207.25,195.10000610351562 247.54998779296875,195.70001220703125 "/>
   <polygon clip-rule="evenodd" fill="#FFFFFF" fill-rule="evenodd" id="svg_191" points="206.25,197.60000610351562 206.75,234.9000244140625 119.3499755859375,284.5 "/>
   <path clip-rule="evenodd" d="m205.249994,200.100012l0.4,34.1l-80,45.5l79.6,-79.6zm2,-5l-94.1,94.1l94.7,-53.8l-0.6,-40.3z" fill="#bae7ff" fill-rule="evenodd" id="svg_190"/>
   <polygon clip-rule="evenodd" fill="#bae7ff" fill-rule="evenodd" id="svg_189" points="113.14999389648438,289.20001220703125 207.25,195.10000610351562 166.8499755859375,194.5 "/>
   <polygon clip-rule="evenodd" fill="#FFFFFF" fill-rule="evenodd" id="svg_188" points="209.85000610351562,196.20001220703125 246.94998168945312,196.70001220703125 296.54998779296875,282.9000244140625 "/>
   <path clip-rule="evenodd" d="m212.449994,197.300012l34,0.5l45.3,78.8l-79.3,-79.3zm-5.2,-2.2l94.1,94.1l-53.8,-93.5l-40.3,-0.6z" fill="#bae7ff" fill-rule="evenodd" id="svg_187"/>
   <polygon clip-rule="evenodd" fill="#bae7ff" fill-rule="evenodd" id="svg_186" points="301.3499755859375,289.20001220703125 207.25,195.10000610351562 207.75,235.5 "/>
   <polygon clip-rule="evenodd" fill="#FFFFFF" fill-rule="evenodd" id="svg_185" points="167.45001220703125,193.5 117.95001220703125,107.30001831054688 204.64999389648438,194 "/>
   <path clip-rule="evenodd" d="m122.849994,113.700012l79.2,79.3l-34,-0.5l-45.2,-78.8zm-9.7,-12.7l53.8,93.5l40.3,0.6l-94.1,-94.1z" fill="#bae7ff" fill-rule="evenodd" id="svg_184"/>
   <polygon clip-rule="evenodd" fill="#bae7ff" fill-rule="evenodd" id="svg_183" points="113.14999389648438,101 207.25,195.10000610351562 206.64999389648438,154.70001220703125 "/>
   <polygon clip-rule="evenodd" fill="#FFFFFF" fill-rule="evenodd" id="svg_182" points="173.8499755859375,161.60000610351562 204.25,46 205.94998168945312,192.20001220703125 "/>
   <path clip-rule="evenodd" d="m203.149994,55.200012l1.5,134l-29.4,-28l27.9,-106zm2.3,-18.5l-33,125.3l34.8,33.1l-1.8,-158.4z" fill="#bae7ff" fill-rule="evenodd" id="svg_181"/>
   <polygon clip-rule="evenodd" fill="#bae7ff" fill-rule="evenodd" id="svg_180" points="205.44998168945312,36.70001220703125 207.25,195.10000610351562 241.25,161.20001220703125 "/>
   <polygon clip-rule="evenodd" fill="#FFFFFF" fill-rule="evenodd" id="svg_179" points="208.54998779296875,198 240.64999389648438,228.5999755859375 210.25,344.20001220703125 "/>
   <path clip-rule="evenodd" d="m209.849994,201.000012l29.4,28l-27.9,106l-1.5,-134zm-2.6,-5.9l1.8,158.4l33,-125.3l-34.8,-33.1z" fill="#bae7ff" fill-rule="evenodd" id="svg_178"/>
   <polygon clip-rule="evenodd" fill="#bae7ff" fill-rule="evenodd" id="svg_177" points="209.04998779296875,353.5 207.25,195.10000610351562 173.14999389648438,229 "/>
   <polygon clip-rule="evenodd" fill="#FFFFFF" fill-rule="evenodd" id="svg_176" points="241.64999389648438,162.60000610351562 356.1500244140625,192.10000610351562 210.35000610351562,193.80001831054688 "/>
   <path clip-rule="evenodd" d="m242.049994,164.000012l104.7,27l-133.4,1.5l28.7,-28.5zm-0.8,-2.8l-34,33.9l158.4,-1.8l-124.4,-32.1z" fill="#bae7ff" fill-rule="evenodd" id="svg_175"/>
   <polygon clip-rule="evenodd" fill="#bae7ff" fill-rule="evenodd" id="svg_174" points="365.6500244140625,193.30001831054688 207.25,195.10000610351562 242.04998779296875,228.20001220703125 "/>
   <polygon clip-rule="evenodd" fill="#FFFFFF" fill-rule="evenodd" id="svg_173" points="58.3499755859375,198.10000610351562 204.14999389648438,196.4000244140625 172.8499755859375,227.5999755859375 "/>
   <path clip-rule="evenodd" d="m201.149994,197.700012l-28.7,28.5l-104.7,-27l133.4,-1.5zm6.1,-2.6l-158.4,1.8l124.3,32.1l34.1,-33.9z" fill="#bae7ff" fill-rule="evenodd" id="svg_172"/>
   <polygon clip-rule="evenodd" fill="#bae7ff" fill-rule="evenodd" id="svg_171" points="48.8499755859375,196.9000244140625 207.25,195.10000610351562 172.45001220703125,162 "/>
   <path clip-rule="evenodd" d="m147.649994,117.500012c11.3,-8.7 24.5,-15 39,-18.1l-1,3.8c-12.8,3 -24.5,8.6 -34.7,16.2l-3.3,-1.9zm-36.5,59.4c2.9,-15.4 9.4,-29.5 18.6,-41.5l1.9,3.3c-8.1,10.8 -13.9,23.4 -16.7,37.2l-3.8,1zm18.4,77.7c-8.7,-11.3 -15,-24.6 -18,-39.1l3.8,1c3,12.8 8.5,24.7 16.1,34.9l-1.9,3.2zm59.2,36.6c-15.2,-2.9 -29.2,-9.3 -41,-18.4l3.3,-1.9c10.7,8 23.2,13.7 36.7,16.5l1,3.8zm78.1,-18.6c-11.3,8.7 -24.5,15 -39,18.1l1,-3.8c12.8,-3 24.5,-8.6 34.7,-16.2l3.3,1.9zm36.5,-59.3c-2.9,15.4 -9.4,29.5 -18.6,41.5l-1.9,-3.3c8.1,-10.8 13.9,-23.4 16.7,-37.1l3.8,-1.1zm-18.5,-77.7c8.7,11.3 15,24.7 18.1,39.2l-3.8,-1c-3,-12.8 -8.5,-24.7 -16.2,-34.9l1.9,-3.3zm-59.1,-36.6c15.2,2.9 29.2,9.3 41,18.4l-3.3,1.9c-10.7,-8 -23.2,-13.7 -36.7,-16.5l-1,-3.8z" fill="#bae7ff" fill-rule="evenodd" id="svg_170"/>
   <path clip-rule="evenodd" d="m116.049994,99.400012c21.2,-20.2 49.1,-33.4 80,-36l-1.3,4.8c-28.7,2.8 -54.6,15 -74.5,33.6l-4.2,-2.4zm-40.7,87.6c1.9,-32.1 15.4,-61.2 36.2,-83.1l2.4,4.3c-19.2,20.6 -31.7,47.6 -33.9,77.5l-4.7,1.3zm36.2,99.3c-20.2,-21.2 -33.5,-49.1 -36,-80.1l4.8,1.2c2.8,28.7 15,54.6 33.6,74.6l-2.4,4.3zm87.5,40.7c-32.1,-2 -61.2,-15.4 -83,-36.2l4.3,-2.4c20.6,19.2 47.6,31.7 77.4,33.9l1.3,4.7zm99.3,-36.2c-21.2,20.2 -49.1,33.4 -80,36l1.3,-4.8c28.7,-2.8 54.5,-15 74.5,-33.6l4.2,2.4zm40.8,-87.6c-1.9,32.1 -15.4,61.2 -36.2,83.1l-2.4,-4.3c19.2,-20.6 31.7,-47.6 33.9,-77.5l4.7,-1.3zm-36.3,-99.3c20.2,21.2 33.5,49.1 36,80.1l-4.8,-1.2c-2.8,-28.7 -15,-54.6 -33.6,-74.6l2.4,-4.3zm-87.5,-40.7c32.1,2 61.2,15.4 83,36.2l-4.3,2.4c-20.6,-19.2 -47.6,-31.7 -77.4,-33.9l-1.3,-4.7z" fill="#bae7ff" fill-rule="evenodd" id="svg_169"/>
   <path clip-rule="evenodd" d="m112.649994,97.400012c22.2,-21.5 51.7,-35.5 84.5,-37.9l-0.5,1.9c-31.9,2.5 -60.6,16.1 -82.3,37l-1.7,-1zm-41.2,90.7c1.7,-34 15.9,-64.7 38.1,-87.6l1,1.7c-21.6,22.4 -35.4,52.3 -37.2,85.4l-1.9,0.5zm38.2,101.6c-21.6,-22.2 -35.6,-51.8 -38,-84.6l1.9,0.5c2.5,31.9 16.1,60.7 37,82.4l-0.9,1.7zm90.6,41.2c-34,-1.7 -64.7,-16 -87.6,-38.2l1.7,-1c22.4,21.6 52.3,35.4 85.4,37.2l0.5,2zm101.6,-38.1c-22.2,21.5 -51.7,35.5 -84.5,37.9l0.5,-1.9c31.8,-2.5 60.6,-16.1 82.3,-37l1.7,1zm41.2,-90.7c-1.7,34 -15.9,64.7 -38.1,87.6l-1,-1.7c21.5,-22.4 35.4,-52.3 37.2,-85.4l1.9,-0.5zm-38.2,-101.6c21.6,22.2 35.6,51.8 38,84.6l-1.9,-0.5c-2.5,-31.9 -16.1,-60.7 -37,-82.4l0.9,-1.7zm-90.6,-41.2c34,1.7 64.7,16 87.6,38.2l-1.7,1c-22.4,-21.6 -52.3,-35.4 -85.4,-37.2l-0.5,-2z" fill="#bae7ff" fill-rule="evenodd" id="svg_168"/>
  </g>
 </g>
 <g class="layer" display="inline">
  <title>Layer 2</title>
 </g>
</svg>